# AST/ASF file generated using VICON BodyLanguage
# -----------------------------------------------
:version 1.10
:name VICON
:units
  mass 1.0
  length 0.45
  angle deg
:documentation
   .ast/.asf automatically generated from VICON data using
   VICON BodyBuilder and BodyLanguage model FoxedUp or BRILLIANT.MOD
:root
   order TX TY TZ RX RY RZ
   axis XYZ
   position 0 0 0  
   orientation 0 0 0 
:bonedata
  begin
     id 1 
     name lhipjoint
     direction 0.682418 -0.694059 0.22932 
     length 2.25561 
     axis 0 0 0  XYZ
  end
  begin
     id 2 
     name lfemur
     direction 0.34202 -0.939693 0  
     length 6.96448  
     axis 0 0 20  XYZ
    dof rx ry rz
    limits (-160.0 20.0)
           (-70.0 70.0)
           (-60.0 70.0)
  end
  begin
     id 3 
     name ltibia
     direction 0.34202 -0.939693 0   
     length 6.88553   
     axis 0 0 20   XYZ
    dof rx
    limits (-10.0 170.0)
  end
  begin
     id 4 
     name lfoot
     direction 0.0723587 -0.198804 0.977364   
     length 1.88518   
     axis -90 7.62852e-016 20   XYZ
    dof rx rz
    limits (-45.0 90.0)
           (-70.0 20.0)
  end
  begin
     id 5 
     name ltoes
     direction 1.53558e-011 -4.21962e-011 1   
     length 0.952124   
     axis -90 7.62852e-016 20   XYZ
    dof rx
    limits (-90.0 20.0)
  end
  begin
     id 6 
     name rhipjoint
     direction -0.657603 -0.71533 0.236348   
     length 2.18854  
     axis 0 0 0  XYZ 
  end
  begin
     id 7 
     name rfemur
     direction -0.34202 -0.939693 0   
     length 6.86686   
     axis 0 0 -20   XYZ
    dof rx ry rz
    limits (-160.0 20.0)
           (-70.0 70.0)
           (-70.0 60.0)
  end
  begin
     id 8 
     name rtibia
     direction -0.34202 -0.939693 0   
     length 6.59503   
     axis 0 0 -20   XYZ
    dof rx
    limits (-10.0 170.0)
 end
 begin
     id 9 
     name rfoot
     direction -0.101977 -0.280179 0.954516   
     length 1.93723  
     axis -90 -7.62852e-016 -20   XYZ
    dof rx rz
    limits (-45.0 90.0)
           (-20.0 70.0)
  end
  begin
     id 10 
     name rtoes
     direction -1.53564e-011 -4.21897e-011 1   
     length 0.970315   
     axis -90 -7.62852e-016 -20   XYZ
    dof rx
    limits (-90.0 20.0)
  end
  begin
     id 11 
     name lowerback
     direction -0.0339559 0.999421 -0.00235966   
     length 1.88543   
     axis 0 0 0   XYZ
    dof rx ry rz
    limits (-20.0 45.0)
           (-30.0 30.0)
           (-30.0 30.0)
  end
  begin
     id 12 
     name upperback
     direction 0.00401003 0.999739 0.0224689   
     length 1.8856   
     axis 0 0 0   XYZ
    dof rx ry rz
    limits (-20.0 45.0)
           (-30.0 30.0)
           (-30.0 30.0)
  end
  begin
     id 13 
     name thorax
     direction 0.0198619 0.999546 0.0226536   
     length 1.88352   
     axis 0 0 0   XYZ
    dof rx ry rz
    limits (-20.0 45.0)
           (-30.0 30.0)
           (-30.0 30.0)
  end
  begin
     id 14 
     name lowerneck
     direction -0.0461848 0.998632 0.0245198   
     length 1.34895   
     axis 0 0 0   XYZ
    dof rx ry rz
    limits (-20.0 45.0)
           (-30.0 30.0)
           (-30.0 30.0)
  end
  begin
     id 15 
     name upperneck
     direction -0.0180627 0.994724 -0.100984   
     length 1.35214   
     axis 0 0 0   XYZ
    dof rx ry rz
    limits (-20.0 45.0)
           (-30.0 30.0)
           (-30.0 30.0)
  end
  begin
     id 16
     name head
     direction -0.00374772 0.999293 -0.037403  
     length 1.3568  
     axis 0 0 0   XYZ
    dof rx ry rz
    limits (-20.0 45.0)
           (-30.0 30.0)
           (-30.0 30.0)
  end
  begin
     id 17 
     name lclavicle
     direction 0.971773 0.191119 0.138311  
     length 2.84954  
     axis 0 0 0   XYZ
    dof ry rz
    limits (-20.0 10.0)
           (0.0 20.0)
  end
  begin
     id 18 
     name lhumerus
     direction 1 -4.4897e-011 -2.43761e-027   
     length 4.40919   
     axis 180 -30 -90   XYZ
    dof rx ry rz
    limits (-60.0 90.0)
           (-90.0 90.0)
           (-90.0 90.0)
  end
  begin
     id 19
     name lradius
     direction 1 -4.4896e-011 -9.1621e-027   
     length 3.03857   
     axis 180 -30 -90   XYZ
    dof rx
    limits (-10.0 170.0)
  end
  begin
     id 20
     name lwrist
     direction 1 -4.4896e-011 -1.41363e-026   
     length 1.51928   
     axis 1.07133e-014 90 90   XYZ
    dof ry
    limits (-180.0 0.0)
 end
  begin
     id 21 
     name lhand
     direction 1 -4.48978e-011 -2.82725e-026   
     length 0.523208   
     axis 1.80403e-014 90 90   XYZ
    dof rx rz
    limits (-90.0 90.0)
           (-45.0 45.0)
  end
  begin
     id 22 
     name lfingers
     direction 1 -4.48977e-011 -5.6545e-026   
     length 0.421824   
     axis 3.60806e-014 90 90   XYZ
    dof rx
    limits (0.0 90.0)
  end
  begin
     id 23
     name lthumb
     direction 0.707107 -6.34962e-011 0.707107   
     length 0.605657   
     axis -90 45 2.85299e-015   XYZ
    dof rx rz
    limits (-45.0 45.0)
           (-45.0 45.0)
  end
  begin
     id 24 
     name rclavicle
     direction -0.957247 0.24311 0.156766   
     length 3.12406  
     axis 0 0 0   XYZ 
    dof ry rz
    limits (-10.0 20.0)
           (-20.0 0.0)
  end
  begin
     id 25 
     name rhumerus
     direction -1 -4.48964e-011 -1.70632e-027  
     length 4.61969   
     axis 180 30 90   XYZ
    dof rx ry rz
    limits (-90.0 60.0)
           (-90.0 90.0)
           (-90.0 90.0)
  end
  begin
     id 26 
     name rradius
     direction -1 -4.48966e-011 -6.60395e-027   
     length 3.09382   
     axis 180 30 90   XYZ
    dof rx
    limits (-10.0 170.0)
  end
  begin
     id 27 
     name rwrist
     direction -1 -4.48963e-011 -1.41363e-026   
     length 1.54691   
     axis 1.07133e-014 -90 -90   XYZ
    dof ry
    limits (-180.0 0.0)
  end
  begin
     id 28
     name rhand
     direction -1 -4.49013e-011 -2.82725e-026   
     length 0.500896   
     axis 1.80403e-014 -90 -90   XYZ
    dof rx rz
    limits (-90.0 90.0)
           (-45.0 45.0)
  end
  begin
     id 29
     name rfingers
     direction -1 -4.48902e-011 -5.6545e-026   
     length 0.403835   
     axis 3.60806e-014 -90 -90   XYZ
    dof rx
    limits (0.0 90.0)
  end
  begin
     id 30
     name rthumb
     direction -0.707107 -6.34953e-011 0.707107   
     length 0.579829   
     axis -90 -45 -2.85299e-015   XYZ
    dof rx rz
    limits (-45.0 45.0)
           (-45.0 45.0)
  end
:hierarchy
  begin
    root lhipjoint rhipjoint lowerback
    lhipjoint lfemur
    lfemur ltibia
    ltibia lfoot
    lfoot ltoes
    rhipjoint rfemur
    rfemur rtibia
    rtibia rfoot
    rfoot rtoes
    lowerback upperback
    upperback thorax
    thorax lowerneck lclavicle rclavicle
    lowerneck upperneck
    upperneck head
    lclavicle lhumerus
    lhumerus lradius
    lradius lwrist
    lwrist lhand lthumb
    lhand lfingers
    rclavicle rhumerus
    rhumerus rradius
    rradius rwrist
    rwrist rhand rthumb
    rhand rfingers
  end

#!OML:ASF E:\madness\Project 1\Capture day 1\Session 1\Female1.ASF
:FULLY-SPECIFIED
:DEGREES
758
root 21.0662 15.0568 1.66299 205.709 -61.5061 -183.524
lowerback 37.6425 2.64129 2.55294
upperback 11.6125 2.31479 1.86466
thorax -5.60918 0.30222 -0.126024
lowerneck -7.85049 2.35353 5.13527
upperneck 6.42855 3.5945 -14.0859
head 3.56416 1.22398 -4.97558
rclavicle -1.59028e-015 1.70955e-014
rhumerus -25.901 -2.0903 -66.5287
rradius 115.653
rwrist -2.19954
rhand -25.1089 -41.1817
rfingers 7.12502
rthumb 1.40643 -71.1568
lclavicle -1.59028e-015 1.70955e-014
lhumerus -49.651 8.2527 75.0483
lradius 90.6628
lwrist -16.8941
lhand -56.7633 -36.1692
lfingers 7.12502
lthumb -29.0654 -8.41673
rfemur -46.3493 6.18345 2.95683
rtibia 46.6659
rfoot -21.5362 -13.2082
rtoes -15.4465
lfemur -58.2137 -18.492 7.01987
ltibia 44.7392
lfoot -10.3654 6.82106
ltoes -16.4639
759
root 21.1472 15.0917 1.55466 206.467 -63.1522 -183.915
lowerback 37.4031 2.51157 3.15045
upperback 11.5054 2.42125 1.72602
thorax -5.60736 0.395356 -0.621106
lowerneck -7.52458 2.089 5.3317
upperneck 6.23739 3.17216 -13.5582
head 3.40135 1.06851 -4.86684
rclavicle 5.40694e-014 -4.96962e-014
rhumerus -27.0345 -3.31189 -66.1811
rradius 115.546
rwrist -2.43734
rhand -25.1854 -41.1946
rfingers 7.12502
rthumb 1.33247 -71.1701
lclavicle 5.40694e-014 -4.96962e-014
lhumerus -49.3616 7.22361 74.5612
lradius 90.6182
lwrist -16.4663
lhand -56.5927 -35.8814
lfingers 7.12502
lthumb -28.9025 -8.10094
rfemur -46.2383 5.0558 3.95126
rtibia 46.6439
rfoot -21.79 -13.5343
rtoes -14.5954
lfemur -59.024 -17.8284 6.40798
ltibia 44.8833
lfoot -9.13205 6.40286
ltoes -13.3359
760
root 21.2271 15.122 1.44983 207.259 -64.8802 -184.352
lowerback 37.3017 2.55401 4.04703
upperback 11.4107 2.83342 1.50919
thorax -5.60078 0.638191 -1.46304
lowerneck -7.56443 1.70516 6.40727
upperneck 6.27479 2.54643 -13.4818
head 3.36699 0.793289 -5.06063
rclavicle 2.38542e-014 1.59028e-014
rhumerus -28.5476 -5.47981 -65.8124
rradius 115.623
rwrist -2.93029
rhand -24.9976 -40.1113
rfingers 7.12502
rthumb 1.51392 -70.0857
lclavicle 2.38542e-014 1.59028e-014
lhumerus -48.5907 5.23597 74.1833
lradius 90.6153
lwrist -16.0226
lhand -56.0575 -34.8692
lfingers 7.12502
lthumb -28.3912 -7.00235
rfemur -46.1876 4.02867 4.91133
rtibia 46.6551
rfoot -21.912 -14.0975
rtoes -14.6413
lfemur -59.8936 -17.0331 5.52332
ltibia 45.2389
lfoot -7.80642 6.00664
ltoes -10.7627
761
root 21.3059 15.1452 1.35319 208.125 -66.8007 -184.869
lowerback 36.8662 1.35007 2.78846
upperback 11.8564 0.908485 2.50233
thorax -5.10149 -0.3382 0.923986
lowerneck -8.28283 3.05524 2.69338
upperneck 5.63206 4.66303 -12.997
head 3.42555 1.75982 -4.1513
rclavicle 5.40694e-014 -7.95139e-016
rhumerus -25.6274 -1.35533 -64.8568
rradius 114.919
rwrist -4.1136
rhand -24.8632 -39.4606
rfingers 7.12502
rthumb 1.64367 -69.434
lclavicle 5.40694e-014 -7.95139e-016
lhumerus -49.6068 10.5705 74.1573
lradius 91.096
lwrist -16.4368
lhand -56.4809 -35.0979
lfingers 7.12502
lthumb -28.7957 -7.29915
rfemur -46.1814 2.96376 5.9052
rtibia 46.6807
rfoot -21.9979 -14.6914
rtoes -14.178
lfemur -60.8455 -16.2743 4.50315
ltibia 45.8302
lfoot -6.89201 5.60293
ltoes -9.74906
762
root 21.377 15.1668 1.25989 208.934 -68.7117 -185.453
lowerback 36.8777 0.964272 3.55879
upperback 11.811 0.741832 2.48719
thorax -5.12817 -0.384797 0.565186
lowerneck -8.38034 2.88377 3.02472
upperneck 5.76025 4.42034 -13.1907
head 3.47228 1.62988 -4.28131
rclavicle -3.10104e-014 -4.41302e-014
rhumerus -26.4951 -2.03587 -64.2904
rradius 114.924
rwrist -4.65312
rhand -24.8768 -39.8751
rfingers 7.12502
rthumb 1.63058 -69.8486
lclavicle -3.10104e-014 -4.41302e-014
lhumerus -49.3559 9.97343 73.8043
lradius 91.1452
lwrist -16.7032
lhand -56.6821 -34.7849
lfingers 7.12502
lthumb -28.9879 -7.0191
rfemur -46.061 2.06591 6.83763
rtibia 46.754
rfoot -22.2029 -15.3189
rtoes -12.8998
lfemur -61.6435 -15.6935 3.3597
ltibia 46.6708
lfoot -6.65308 5.23335
ltoes -9.22489
763
root 21.4337 15.1882 1.168 209.785 -70.4696 -186.214
lowerback 36.8573 0.379014 3.5104
upperback 11.7606 0.0669453 2.8323
thorax -5.18527 -0.70649 1.19254
lowerneck -8.20753 3.25102 2.17537
upperneck 5.68156 5.00937 -13.3958
head 3.45687 1.89749 -4.16841
rclavicle -1.74931e-014 -5.56597e-015
rhumerus -26.4793 -1.04942 -63.4352
rradius 114.759
rwrist -5.34147
rhand -24.5233 -39.8111
rfingers 7.12502
rthumb 1.97197 -69.7818
lclavicle -1.74931e-014 -5.56597e-015
lhumerus -50.1245 11.1855 73.5423
lradius 91.6004
lwrist -16.8428
lhand -56.7334 -35.9626
lfingers 7.12502
lthumb -29.0369 -8.20514
rfemur -45.8215 1.29877 7.65056
rtibia 46.897
rfoot -22.5179 -15.9351
rtoes -11.4595
lfemur -62.2991 -15.199 1.94644
ltibia 47.961
lfoot -7.03067 4.62915
ltoes -10.3655
764
root 21.4873 15.1996 1.07563 210.69 -72.045 -187.026
lowerback 36.8362 0.395021 4.33817
upperback 11.6929 0.407297 2.65979
thorax -5.22406 -0.505095 0.45881
lowerneck -8.40359 2.95907 3.27884
upperneck 6.02122 4.54584 -13.4771
head 3.57807 1.67495 -4.40578
rclavicle -1.74931e-014 8.90555e-014
rhumerus -28.2561 -2.8356 -62.9079
rradius 115.152
rwrist -5.81339
rhand -24.2197 -39.6317
rfingers 7.12502
rthumb 2.26522 -69.5995
lclavicle -1.74931e-014 8.90555e-014
lhumerus -49.6587 9.53281 73.2764
lradius 91.8178
lwrist -16.9483
lhand -56.4794 -35.0165
lfingers 7.12502
lthumb -28.7942 -7.21755
rfemur -45.6965 0.704524 8.3728
rtibia 47.093
rfoot -22.8647 -16.4889
rtoes -10.0271
lfemur -62.9939 -14.5703 0.377557
ltibia 49.6119
lfoot -7.93485 3.44815
ltoes -10.773
765
root 21.5361 15.2006 0.982513 211.103 -73.2319 -187.313
lowerback 36.6744 0.230316 3.82094
upperback 11.6307 0.0865057 3.05705
thorax -5.26042 -0.669193 1.25785
lowerneck -7.96638 3.27982 2.39071
upperneck 5.76601 5.03674 -13.3739
head 3.44763 1.9263 -4.19819
rclavicle 4.05521e-014 1.23246e-014
rhumerus -28.2994 -2.09359 -62.0306
rradius 114.833
rwrist -6.37563
rhand -24.3272 -40.2564
rfingers 7.12502
rthumb 2.16138 -70.2252
lclavicle 4.05521e-014 1.23246e-014
lhumerus -50.5465 10.7772 73.121
lradius 92.2807
lwrist -17.6876
lhand -56.5071 -34.6449
lfingers 7.12502
lthumb -28.8208 -6.85045
rfemur -45.7883 0.53499 9.03954
rtibia 47.4527
rfoot -23.2333 -16.9583
rtoes -8.80844
lfemur -63.2783 -13.4684 -1.57788
ltibia 51.7736
lfoot -9.10316 2.56741
ltoes -11.5339
766
root 21.5749 15.2052 0.895117 211.098 -74.1399 -187.184
lowerback 36.3844 0.435482 4.15509
upperback 11.761 0.427443 2.84035
thorax -5.00467 -0.482786 0.729449
lowerneck -8.34342 3.06348 2.84735
upperneck 5.9764 4.70238 -12.9752
head 3.54443 1.77344 -4.16753
rclavicle -3.4191e-014 -3.61788e-014
rhumerus -28.7918 -3.48745 -61.687
rradius 113.914
rwrist -6.54753
rhand -24.528 -40.5487
rfingers 7.12502
rthumb 1.96741 -70.5193
lclavicle -3.4191e-014 -3.61788e-014
lhumerus -50.1686 9.84187 72.6153
lradius 92.4892
lwrist -17.973
lhand -56.4899 -34.7388
lfingers 7.12502
lthumb -28.8043 -6.94161
rfemur -45.9122 0.516343 9.6978
rtibia 47.8023
rfoot -23.4851 -17.2982
rtoes -7.50626
lfemur -63.591 -12.4407 -3.34482
ltibia 54.1473
lfoot -9.79206 2.34987
ltoes -11.5887
767
root 21.6513 15.1925 0.810546 213.487 -75.6574 -188.925
lowerback 35.807 -0.601779 0.801117
upperback 11.7793 -1.82469 4.77268
thorax -4.89385 -1.67697 5.29082
lowerneck -8.58209 4.95374 -2.22133
upperneck 5.22074 7.71698 -13.033
head 3.42755 3.15591 -3.16552
rclavicle 3.33958e-014 6.08281e-014
rhumerus -24.6992 2.85976 -59.4865
rradius 112.869
rwrist -7.67658
rhand -24.4187 -40.8231
rfingers 7.12502
rthumb 2.073 -70.7927
lclavicle 3.33958e-014 6.08281e-014
lhumerus -53.4258 17.5143 72.786
lradius 93.403
lwrist -18.6774
lhand -56.5969 -35.6652
lfingers 7.12502
lthumb -28.9066 -7.88543
rfemur -46.6829 -0.14151 10.2012
rtibia 48.1776
rfoot -23.6784 -17.786
rtoes -5.61132
lfemur -64.9856 -11.796 -5.00312
ltibia 56.7052
lfoot -10.1537 2.48694
ltoes -12.881
768
root 21.6899 15.2034 0.729267 213.715 -76.5846 -189.216
lowerback 35.7829 0.583881 4.42792
upperback 11.5377 0.790729 2.75101
thorax -5.02808 -0.257041 0.359661
lowerneck -8.98971 2.79504 4.20624
upperneck 6.77621 4.3126 -13.575
head 3.90279 1.53472 -4.60666
rclavicle 2.22639e-014 -1.94809e-014
rhumerus -31.1681 -5.4421 -60.4755
rradius 113.732
rwrist -6.79431
rhand -24.2557 -40.3669
rfingers 7.12502
rthumb 2.23039 -70.335
lclavicle 2.22639e-014 -1.94809e-014
lhumerus -50.1822 8.41968 71.7599
lradius 92.9292
lwrist -18.4357
lhand -56.1103 -35.7912
lfingers 7.12502
lthumb -28.4416 -7.93277
rfemur -46.5687 -0.134059 10.7781
rtibia 48.3811
rfoot -24.0108 -18.0611
rtoes -3.9655
lfemur -65.1047 -11.0271 -6.76799
ltibia 59.2988
lfoot -10.318 3.21828
ltoes -10.6876
